<?xml version="1.0" encoding="iso-8859-1"?>
<!-- Generator: Adobe Illustrator 21.0.0, SVG Export Plug-In . SVG Version: 6.00 Build 0)  -->
<svg xmlns="http://www.w3.org/2000/svg" xmlns:xlink="http://www.w3.org/1999/xlink" version="1.1" id="Capa_1" x="0px" y="0px" viewBox="0 0 512 512" style="enable-background:new 0 0 512 512;" xml:space="preserve" width="512" height="512">
<g>
	<g>
		<path d="M495.146,285.061c-2.191-3.516-6.815-4.589-10.332-2.4c-3.516,2.19-4.59,6.816-2.4,10.332    C491.956,308.311,497,325.98,497,344.09V400c0,2.95-2.391,5.35-5.33,5.35c-2.934,0-5.32-2.399-5.32-5.35v-55.91    c0-37.723-24.468-70.858-60.042-82.111c-1.144-4.232-2.617-8.337-4.393-12.284c15.101,3.437,29.119,10.487,41.139,20.776    c3.145,2.693,7.88,2.328,10.574-0.82c2.694-3.147,2.327-7.881-0.82-10.574c-17.402-14.897-38.437-23.919-61.026-26.214    c-12.985-16.71-32.287-28.381-54.567-31.214l-35.059-4.452c-4.105-0.516-7.863,2.386-8.386,6.495    c-0.521,4.109,2.387,7.863,6.495,8.386l35.058,4.452c33.537,4.264,58.827,33.028,58.827,66.91v40.52    c0,17.46,9.946,27.932,18.722,37.17c9.41,9.906,18.298,19.263,18.298,37.87v98h-31.646c1.347-6.926,4.464-23.898,6.448-42.188    c4.888-45.064-1.672-56.836-7.031-61.771c-17.25-15.885-60.184-16.225-73.917-23.99c-10.315-5.834-29.664-50.481-33.865-59.172    c-1.328-2.748-3.365-6.876-8.462-6.694c-3.169,0.13-58.339,24.172-124.238,15.686c-46.108-5.944-51.15,25.269-54.483,45.92    c-9.025,69.386-6.635,51.014-7.048,54.19c-0.528,4.108,2.375,7.867,6.483,8.395c4.105,0.532,7.867-2.373,8.395-6.482    c0.413-3.177-1.965,15.126,6.979-53.711c1.305-8.082,2.503-15.51,5.302-21.352c8.413,40.419,22.403,107.781,23.868,115.771    c0.629,3.438-1.307,11.116-2.862,17.286c-2.948,11.693-5.494,21.792-0.33,28.42C167.119,510.333,170.755,512,175,512h40.94    c6.314,0,9.844-2.855,11.694-5.251c5.832-7.553,2.752-19.33-1.51-35.632c-0.904-3.456-1.838-7.03-2.71-10.675    c-2.67-11.138-7.627-55.312-14.009-124.766c29.344-0.237,55.035-5.447,72.523-10.217c7.511,34.378,11.696,58.735,11.554,67.404    c-0.26,16.613-10.913,61.136-13.24,70.191c-1.77,4.787-4.366,10.212-6.88,15.462c-6.431,13.431-10.679,22.304-6.554,28.853    c1.854,2.943,5.084,4.631,8.862,4.631h41.83c1.958,0,4.896-0.611,7.769-3.523c5.649-5.725,9.323-18.815,9.141-32.577    c-0.109-8.102,2.758-30.144,16.682-88.8c18.213,4.758,47.616,7.702,57.689,16.978c0.707,0.65,6.775,7.555,2.289,49.017    c-2.361,21.827-6.526,42.374-6.861,44.008c-0.839,3.604-0.02,7.328,2.262,10.245c2.313,2.957,5.79,4.653,9.54,4.653h38.04    c6.683,0,12.12-5.438,12.12-12.12V399c0-24.596-12.433-37.684-22.422-48.2c-8.156-8.587-14.598-15.368-14.598-26.84    c-0.039-42.316,0.089-41.07-0.118-44.941c25.391,11.211,42.317,36.552,42.317,65.071V400c0,11.221,9.115,20.35,20.32,20.35    c11.21,0,20.33-9.129,20.33-20.35v-55.91C512,323.174,506.172,302.762,495.146,285.061z M215.821,497l-39.05-0.003    c0.098-3.472,1.785-10.16,2.864-14.443c2.206-8.747,4.289-17.01,3.072-23.656c-1.598-8.718-17.589-85.647-25.659-124.396    c4.858-1.477,11.177-1.826,19.494-0.754c6.01,0.774,11.943,1.294,17.77,1.599c4.748,51.779,10.904,113.53,14.514,128.588    c0.907,3.794,1.862,7.446,2.786,10.978C213.537,482.274,216.371,493.113,215.821,497z M319.411,476.1    c0.137,10.396-2.476,18.083-4.139,20.9h-33.819c1.41-3.596,3.712-8.401,5.438-12.006c2.727-5.695,5.546-11.584,7.535-17.052    c0.134-0.355,13.728-53.973,14.054-74.839c0.205-12.525-6.178-44.765-12.15-72.005c1.098-0.369,2.111-0.718,3.032-1.042    c7.392,16.048,23.56,52.874,37.594,61.645C325.136,431.324,319.235,463.069,319.411,476.1z"/>
		<path d="M121.241,444.245c-4.114-0.531-7.867,2.374-8.395,6.482l-2.685,20.887c-0.12,0.935-0.061,1.891,0.17,2.804    c2.583,10.202,2.477,20.555,0.683,22.567c-0.057,0.008-0.144,0.015-0.265,0.015H72c-0.149,0-0.277-0.005-0.383-0.013    c-0.564-2.576,0.45-12.371,11.268-33.046c0.718-1.372,1.219-2.382,1.263-4.085c0.127-4.856,2.92-119.546-13.865-172.782    c-3.864-12.25-0.171-31.775,3.739-52.447c13.075-69.13,7.915-90.328-34.681-113.596C29.068,115.42,15,107.737,15,101.86v-28.65    c0-6.488,6.265-7.85,11.52-7.85c3.773,0,5.674-2.233,7.309-5.045c2.888-4.969,11.67-20.07,30.902-18.529    c3.811,0.3,7.59,0.877,11.294,1.723c-1.414,18.41,10.947,36.08,30.484,42.448c5.622,1.67,7.678,2.951,11.599,2.951    c3.773,0,7.497-1.336,10.492-3.929c4.504,9.219,7.292,19.395,13.145,33.608c17.406,45.905,58.412,78.244,107.041,84.413    l39.48,5.015c0.321,0.041,0.64,0.061,0.955,0.061c3.721,0,6.949-2.768,7.431-6.556c0.521-4.109-2.387-7.863-6.495-8.386    l-39.482-5.015c-43.145-5.473-79.523-34.189-94.938-74.942c-0.026-0.069-0.053-0.138-0.081-0.205    c-8.465-20.533-10.538-33.083-22.236-48.794l-2.429-27.404c-1.335-21.506-15.779-34.899-28.716-36.589    C93.099-1.017,85.346,3.738,82.517,12.29c-0.082,0.248-0.151,0.5-0.207,0.755l-3.435,15.73c-4.257-0.948-8.59-1.598-12.949-1.941    C53.273,25.804,35.6,29.192,22.163,50.621C10.541,52.026,0,59.166,0,73.209v28.65c0,14.775,16.344,23.703,32.15,32.336    c31.133,17.003,40.599,26.444,27.133,97.643c-4.271,22.577-8.304,43.901-3.306,59.746c14.965,47.465,13.498,151.6,13.212,166.18    c-17.985,34.676-12.184,44.26-10.268,47.425C60.461,507.733,64.208,512,72,512h38.75c4.891,0,9.181-2.055,12.078-5.784    c7.206-9.276,4.058-26.962,2.389-34.072l2.507-19.504C128.251,448.531,125.349,444.772,121.241,444.245z M100.331,15.058    c5.825,0.761,14.84,8.508,15.692,22.723c0.004,0.071,0.009,0.143,0.016,0.214l3.082,34.77c0.067,0.756-0.633,1.317-1.339,1.09    l-6.624-2.159c-13.769-4.488-22.432-17.723-19.723-30.13c0.404-1.849,2.204-10.067,5.438-24.899    C97.208,15.749,97.836,14.727,100.331,15.058z"/>
	</g>
</g>















</svg>
